<?xml version="1.0" encoding="utf-8"?>
<!-- Generator: Adobe Illustrator 12.0.0, SVG Export Plug-In . SVG Version: 6.00 Build 51448)  -->
<!DOCTYPE svg PUBLIC "-//W3C//DTD SVG 1.1//EN" "http://www.w3.org/Graphics/SVG/1.1/DTD/svg11.dtd" [
	<!ENTITY ns_svg "http://www.w3.org/2000/svg">
	<!ENTITY ns_xlink "http://www.w3.org/1999/xlink">
]>
<svg  version="1.1" id="Layer_1" xmlns="&ns_svg;" xmlns:xlink="&ns_xlink;" width="601" height="601" viewBox="0 0 601 601"
	 overflow="visible" enable-background="new 0 0 601 601" xml:space="preserve">
<g>
	<g>
		<g>
			<path fill="#FFFFFF" d="M0.5,50.5c0-27.6142578,22.3852539-50,50-50h500c27.6142578,0,50,22.3857422,50,50v500
				c0,27.6152344-22.3857422,50-50,50h-500c-27.6147461,0-50-22.3847656-50-50V50.5L0.5,50.5z"/>
			<path fill="#FFFFFF" d="M300.5,300.5"/>
		</g>
		<g>
			<path fill="none" stroke="#000000" stroke-linecap="round" stroke-linejoin="round" stroke-miterlimit="3.863693" d="M0.5,50.5
				c0-27.6142578,22.3852539-50,50-50h500c27.6142578,0,50,22.3857422,50,50v500c0,27.6152344-22.3857422,50-50,50h-500
				c-27.6147461,0-50-22.3847656-50-50V50.5L0.5,50.5z"/>
			<path fill="none" stroke="#000000" stroke-linecap="round" stroke-linejoin="round" stroke-miterlimit="3.863693" d="
				M300.5,300.5"/>
		</g>
	</g>
	<g>
		<g>
			<path d="M10.5,50.5c0-22.0913086,17.9082031-40,40-40h500c22.0917969,0,40,17.9086914,40,40v500
				c0,22.0917969-17.9082031,40-40,40h-500c-22.0917969,0-40-17.9082031-40-40V50.5L10.5,50.5z"/>
			<path d="M300.5,300.5"/>
		</g>
	</g>
	<g>
		<g>
			<path fill="#FFFFFF" d="M25.5,50.5c0-13.8071289,11.1923828-25,25-25h500c13.8066406,0,25,11.1928711,25,25v500
				c0,13.8076172-11.1933594,25-25,25h-500c-13.8076172,0-25-11.1923828-25-25V50.5L25.5,50.5z"/>
			<path fill="#FFFFFF" d="M300.5,300.5"/>
		</g>
	</g>
</g>
<g>
	<path fill-rule="evenodd" clip-rule="evenodd" d="M79.6645508,445.3125
		c0.5761719-17.0019531,2.737793-32.5644531,6.484375-46.6855469c3.7460938-14.1210938,9.6538086-28.0976563,17.7231445-41.9316406
		c6.0517578-10.9511719,13.5449219-21.109375,22.4785156-30.4746094
		c8.9335938-9.3662109,18.4438477-17.7949219,28.5302734-25.2880859c2.59375-1.440918,4.8989258-2.9541016,6.9165039-4.5390625
		c2.0170898-1.5849609,4.0341797-3.0981445,6.0517578-4.5390625l15.5620117-8.2133789l14.2651367-8.2133789l13.8330078-7.78125
		c5.7631836-3.7456055,10.4462891-8.4287109,14.0488281-14.0488281c3.6020508-5.6191406,5.4033203-11.4545898,5.4033203-17.5068359
		c0-5.4755859-1.440918-10.5908203-4.3227539-15.3461914c-2.8813477-4.7543945-6.7001953-8.8613281-11.4550781-12.3193359
		c-4.7553711-3.4580078-10.3027344-6.1958008-16.6430664-8.2133789c-6.3398438-2.0170898-13.1123047-3.0258789-20.3168945-3.0258789
		c-14.6972656,0-26.5849609,3.4580078-35.6625977,10.3745117c-9.078125,6.9160156-14.7695313,17.0029297-17.0751953,30.2592773
		l-45.8212891-9.9423828c4.8994141-24.2070313,16.1381836-43.1552734,33.7177734-56.8442383
		C130.9614258,157.3447266,152.5751953,150.5,178.2236328,150.5c13.8330078,0,26.7294922,2.3056641,38.6889648,6.9165039
		s22.3339844,10.8071289,31.1235352,18.5878906c8.7900391,7.78125,15.7783203,16.9311523,20.9663086,27.449707
		c5.1865234,10.5185547,7.7802734,21.6860352,7.7802734,33.5014648c0,11.2392578-2.5214844,22.262207-7.5649414,33.0688477
		c-5.0429688,10.8071289-12.3198242,20.3891602-21.8295898,28.746582c-2.3056641,1.7290039-4.3950195,3.3129883-6.2680664,4.7543945
		c-1.8735352,1.4414063-3.8183594,2.59375-5.8359375,3.4589844l-14.2651367,9.0771484l-15.5620117,8.2138672l-14.2651367,8.2128906
		c-6.9165039,4.0351563-13.0400391,8.2851563-18.371582,12.7519531
		c-5.3310547,4.4667969-10.2304688,9.2949219-14.6972656,14.4824219
		c-4.4672852,5.1865234-8.6455078,10.9501953-12.5356445,17.2900391
		c-3.8911133,6.3398438-7.5654297,13.5449219-11.0234375,21.6142578h142.21875V445.3125H79.6645508z"/>
	<path fill-rule="evenodd" clip-rule="evenodd" d="M521.3349609,201.5087891
		c-2.59375,3.1699219-4.9707031,6.0517578-7.1318359,8.6455078c-2.1621094,2.59375-4.1787109,5.1875-6.0527344,7.78125
		c-1.8730469,2.5932617-3.8183594,5.3310547-5.8349609,8.2128906c-2.0175781,2.8818359-4.1787109,6.1962891-6.4853516,9.9423828
		c-12.9677734,21.3256836-23.9902344,43.8041992-33.0683594,67.4345703
		c-9.078125,23.6318359-16.0664063,47.1191406-20.9648438,70.4619141c-0.8652344,6.0517578-1.7304688,11.8876953-2.59375,17.5068359
		c-0.8652344,5.6201172-1.5136719,11.2402344-1.9453125,16.859375c-0.4335938,5.6191406-0.7929688,11.3828125-1.0810547,17.2910156
		s-0.4326172,12.4638672-0.4326172,19.6679688h-46.6855469c0.2880859-16.7148438,1.296875-32.8525391,3.0253906-48.4140625
		c1.7294922-15.5625,4.2509766-30.8369141,7.5644531-45.8222656c3.3144531-14.9853516,7.5654297-29.8984375,12.7529297-44.7402344
		c5.1875-14.8413086,11.3837891-29.8994141,18.5878906-45.1728516
		c4.8994141-10.9511719,10.2304688-21.6142578,15.9941406-31.9887695s11.2392578-19.5961914,16.4267578-27.6655273h-138.328125
		V155.6875h196.2529297V201.5087891z"/>
</g>
</svg>
