<?xml version="1.0" encoding="utf-8"?>
<!-- Generator: Adobe Illustrator 12.0.0, SVG Export Plug-In . SVG Version: 6.00 Build 51448)  -->
<!DOCTYPE svg PUBLIC "-//W3C//DTD SVG 1.1//EN" "http://www.w3.org/Graphics/SVG/1.1/DTD/svg11.dtd" [
	<!ENTITY ns_svg "http://www.w3.org/2000/svg">
	<!ENTITY ns_xlink "http://www.w3.org/1999/xlink">
]>
<svg  version="1.1" id="Layer_1" xmlns="&ns_svg;" xmlns:xlink="&ns_xlink;" width="601" height="601" viewBox="0 0 601 601"
	 overflow="visible" enable-background="new 0 0 601 601" xml:space="preserve">
<g>
	<g>
		<g>
			<path fill="#FFFFFF" d="M0.5,50.5c0-27.6142578,22.3852539-50,50-50h500c27.6142578,0,50,22.3857422,50,50v500
				c0,27.6152344-22.3857422,50-50,50h-500c-27.6147461,0-50-22.3847656-50-50V50.5L0.5,50.5z"/>
			<path fill="#FFFFFF" d="M300.5,300.5"/>
		</g>
		<g>
			<path fill="none" stroke="#000000" stroke-linecap="round" stroke-linejoin="round" stroke-miterlimit="3.863693" d="M0.5,50.5
				c0-27.6142578,22.3852539-50,50-50h500c27.6142578,0,50,22.3857422,50,50v500c0,27.6152344-22.3857422,50-50,50h-500
				c-27.6147461,0-50-22.3847656-50-50V50.5L0.5,50.5z"/>
			<path fill="none" stroke="#000000" stroke-linecap="round" stroke-linejoin="round" stroke-miterlimit="3.863693" d="
				M300.5,300.5"/>
		</g>
	</g>
	<g>
		<g>
			<path d="M10.5,50.5c0-22.0917969,17.9082031-40,40-40h500c22.0917969,0,40,17.9082031,40,40v500
				c0,22.0917969-17.9082031,40-40,40h-500c-22.0917969,0-40-17.9082031-40-40V50.5L10.5,50.5z"/>
			<path d="M300.5,300.5"/>
		</g>
	</g>
	<g>
		<g>
			<path fill="#FFFFFF" d="M25.5,50.5c0-13.8071289,11.1923828-25,25-25h500c13.8066406,0,25,11.1928711,25,25v500
				c0,13.8076172-11.1933594,25-25,25h-500c-13.8076172,0-25-11.1923828-25-25V50.5L25.5,50.5z"/>
			<path fill="#FFFFFF" d="M300.5,300.5"/>
		</g>
	</g>
</g>
<g>
	<path fill-rule="evenodd" clip-rule="evenodd" d="M270.9921875,349.7792969c0,14.6972656-2.449707,28.2421875-7.3486328,40.6347656
		c-4.8994141,12.3916016-11.7436523,22.9824219-20.5332031,31.7714844c-8.7895508,8.7900391-19.3081055,15.7060547-31.5561523,20.75
		C199.3061523,447.9785156,185.8334961,450.5,171.1362305,450.5c-11.8154297,0-22.8383789-1.8730469-33.0693359-5.6191406
		c-10.2304688-3.7470703-19.5961914-8.9335938-28.0976563-15.5625
		c-8.5014648-6.6279297-15.7783203-14.6972656-21.8300781-24.2070313S77.6201172,384.9375,74.7382813,373.1230469
		l44.9570313-12.96875c3.4580078,14.1210938,9.7983398,24.9277344,19.0200195,32.4199219
		c9.222168,7.4941406,20.7495117,11.2402344,34.5825195,11.2402344c7.7807617,0,14.8413086-1.296875,21.1811523-3.890625
		c6.340332-2.59375,11.7436523-6.1240234,16.2104492-10.5908203c4.4667969-4.4677734,7.9970703-9.7978516,10.5908203-15.9941406
		s3.890625-13.0400391,3.890625-20.5332031s-1.440918-14.5537109-4.3227539-21.1816406s-6.9165039-11.8154297-12.1040039-15.5625
		c-1.7290039-1.1513672-3.2421875-2.0888672-4.5390625-2.8095703c-1.2963867-0.7207031-2.8813477-1.2246094-4.7548828-1.5126953
		c-1.8730469-0.2880859-4.3222656-0.5761719-7.3486328-0.8642578c-3.0258789-0.2890625-7.2763672-0.5761719-12.7519531-0.8652344
		h-5.1875v-46.6855469v1.296875h1.296875h0.8647461h9.0776367c9.2216797,0,16.2822266-2.4492188,21.1816406-7.3486328
		c4.8989258-4.8989258,7.3486328-11.9594727,7.3486328-21.1816406c0-11.2392578-3.9628906-20.5332031-11.8876953-27.8818359
		s-17.7954102-11.0229492-29.6108398-11.0229492c-19.3081055,0-33.8618164,9.5097656-43.659668,28.5302734L85.9775391,209.722168
		c7.4931641-18.4438477,18.8041992-32.925293,33.934082-43.4438477C135.0410156,155.7597656,152.1162109,150.5,171.1362305,150.5
		c12.1040039,0,23.559082,2.3056641,34.3657227,6.9165039c10.8071289,4.6108398,20.2451172,10.9511719,28.3144531,19.0200195
		c8.0693359,8.0693359,14.4091797,17.5073242,19.0200195,28.3144531
		c4.6108398,10.8066406,6.9165039,22.2617188,6.9165039,34.3657227c0,8.6455078-1.152832,16.4267578-3.4580078,23.3432617
		c-2.3056641,6.9165039-6.628418,14.9853516-12.96875,24.2075195c5.4760742,4.8989258,9.9423828,9.5820313,13.4008789,14.0493164
		c3.4584961,4.4658203,6.2680664,9.1484375,8.4291992,14.0488281c2.1616211,4.8984375,3.6748047,10.1582031,4.5390625,15.7773438
		C270.5595703,336.1630859,270.9921875,342.5742188,270.9921875,349.7792969z"/>
	<path fill-rule="evenodd" clip-rule="evenodd" d="M329.1435547,445.3125
		c0.5761719-17.0019531,2.7373047-32.5644531,6.4833984-46.6855469
		c3.7470703-14.1210938,9.6542969-28.0976563,17.7236328-41.9316406
		c6.0517578-10.9511719,13.5449219-21.109375,22.4785156-30.4746094
		c8.9335938-9.3662109,18.4443359-17.7949219,28.5302734-25.2880859c2.59375-1.440918,4.8984375-2.9541016,6.9160156-4.5390625
		s4.0351563-3.0981445,6.0527344-4.5390625l15.5615234-8.2133789l14.2646484-8.2133789l13.8330078-7.7807617
		c5.7636719-3.7460938,10.4472656-8.4291992,14.0498047-14.0493164c3.6015625-5.6191406,5.4023438-11.4545898,5.4023438-17.5068359
		c0-5.4755859-1.4404297-10.5908203-4.3222656-15.3461914c-2.8818359-4.7543945-6.7001953-8.8613281-11.4550781-12.3193359
		c-4.7548828-3.4584961-10.3027344-6.1962891-16.6425781-8.2133789s-13.1123047-3.0258789-20.3173828-3.0258789
		c-14.6972656,0-26.5849609,3.4580078-35.6630859,10.3745117c-9.0771484,6.9160156-14.7695313,17.0029297-17.0742188,30.2592773
		l-45.8212891-9.9423828c4.8994141-24.2070313,16.1376953-43.1552734,33.7177734-56.8442383
		C380.4394531,157.3447266,402.0537109,150.5,427.7021484,150.5c13.8330078,0,26.7294922,2.3056641,38.6884766,6.9165039
		c11.9599609,4.6108398,22.3349609,10.8071289,31.125,18.5878906c8.7890625,7.78125,15.7773438,16.9311523,20.9648438,27.449707
		s7.78125,21.6860352,7.78125,33.5014648c0,11.2392578-2.5214844,22.262207-7.5654297,33.0688477
		c-5.0429688,10.8071289-12.3193359,20.3891602-21.8300781,28.746582c-2.3056641,1.7290039-4.3945313,3.3139648-6.2675781,4.7543945
		c-1.8730469,1.4414063-3.8183594,2.59375-5.8359375,3.4589844l-14.2646484,9.0771484l-15.5625,8.2138672l-14.265625,8.2128906
		c-6.9160156,4.0351563-13.0390625,8.2851563-18.3710938,12.7519531s-10.2304688,9.2949219-14.6972656,14.4824219
		c-4.4667969,5.1865234-8.6455078,10.9501953-12.5361328,17.2900391S387.5,390.5576172,384.0429688,398.6269531h142.21875V445.3125
		H329.1435547z"/>
</g>
</svg>
