<?xml version="1.0" encoding="utf-8"?>
<!-- Generator: Adobe Illustrator 12.0.0, SVG Export Plug-In . SVG Version: 6.00 Build 51448)  -->
<!DOCTYPE svg PUBLIC "-//W3C//DTD SVG 1.1//EN" "http://www.w3.org/Graphics/SVG/1.1/DTD/svg11.dtd" [
	<!ENTITY ns_svg "http://www.w3.org/2000/svg">
	<!ENTITY ns_xlink "http://www.w3.org/1999/xlink">
]>
<svg  version="1.1" id="Layer_1" xmlns="&ns_svg;" xmlns:xlink="&ns_xlink;" width="601" height="601" viewBox="0 0 601 601"
	 overflow="visible" enable-background="new 0 0 601 601" xml:space="preserve">
<g>
	<g>
		<g>
			<path fill="#FFFFFF" d="M0.5,50.5c0-27.6142578,22.3852539-50,50-50h500c27.6142578,0,50,22.3857422,50,50v500
				c0,27.6152344-22.3857422,50-50,50h-500c-27.6147461,0-50-22.3847656-50-50V50.5L0.5,50.5z"/>
			<path fill="#FFFFFF" d="M300.5,300.5"/>
		</g>
		<g>
			<path fill="none" stroke="#000000" stroke-linecap="round" stroke-linejoin="round" stroke-miterlimit="3.863693" d="M0.5,50.5
				c0-27.6142578,22.3852539-50,50-50h500c27.6142578,0,50,22.3857422,50,50v500c0,27.6152344-22.3857422,50-50,50h-500
				c-27.6147461,0-50-22.3847656-50-50V50.5L0.5,50.5z"/>
			<path fill="none" stroke="#000000" stroke-linecap="round" stroke-linejoin="round" stroke-miterlimit="3.863693" d="
				M300.5,300.5"/>
		</g>
	</g>
	<g>
		<g>
			<path d="M10.5,50.5c0-22.0917969,17.9082031-40,40-40h500c22.0917969,0,40,17.9082031,40,40v500
				c0,22.0917969-17.9082031,40-40,40h-500c-22.0917969,0-40-17.9082031-40-40V50.5L10.5,50.5z"/>
			<path d="M300.5,300.5"/>
		</g>
	</g>
	<g>
		<g>
			<path fill="#FFFFFF" d="M25.5,50.5c0-13.8071289,11.1923828-25,25-25h500c13.8066406,0,25,11.1928711,25,25v500
				c0,13.8076172-11.1933594,25-25,25h-500c-13.8076172,0-25-11.1923828-25-25V50.5L25.5,50.5z"/>
			<path fill="#FFFFFF" d="M300.5,300.5"/>
		</g>
	</g>
</g>
<g>
	<path fill-rule="evenodd" clip-rule="evenodd" d="M254.1650391,373.1230469V445.3125h-45.3886719v-72.1894531H65.2602539
		v-27.234375L208.7763672,155.6875h45.3886719v175.9365234h27.6660156v41.4990234H254.1650391z M208.7763672,222.6904297
		l-82.5654297,108.9335938h82.5654297V222.6904297z"/>
	<path fill-rule="evenodd" clip-rule="evenodd" d="M535.7402344,349.7792969
		c0,14.6972656-2.4501953,28.2421875-7.3496094,40.6347656c-4.8984375,12.3916016-11.7431641,22.9824219-20.5332031,31.7714844
		c-8.7890625,8.7900391-19.3085938,15.7060547-31.5556641,20.75C464.0537109,447.9785156,450.5810547,450.5,435.8837891,450.5
		c-11.8154297,0-22.8388672-1.8730469-33.0693359-5.6191406c-10.2304688-3.7470703-19.5966797-8.9335938-28.0976563-15.5625
		c-8.5019531-6.6279297-15.7783203-14.6972656-21.8300781-24.2070313s-10.5185547-20.1738281-13.4003906-31.9882813
		l44.9570313-12.96875c3.4580078,14.1210938,9.7978516,24.9277344,19.0195313,32.4199219
		c9.2216797,7.4941406,20.7490234,11.2402344,34.5820313,11.2402344c7.78125,0,14.8417969-1.296875,21.1816406-3.890625
		s11.7441406-6.1240234,16.2109375-10.5908203c4.4667969-4.4677734,7.9960938-9.7978516,10.5898438-15.9941406
		s3.890625-13.0400391,3.890625-20.5332031s-1.4404297-14.5537109-4.3222656-21.1816406
		s-6.9160156-11.8154297-12.1035156-15.5615234c-1.7294922-1.1533203-3.2421875-2.0898438-4.5390625-2.8105469
		s-2.8818359-1.2246094-4.7558594-1.5126953c-1.8730469-0.2880859-4.3222656-0.5761719-7.3476563-0.8642578
		c-3.0263672-0.2890625-7.2773438-0.5761719-12.7519531-0.8652344h-5.1875v-46.6855469v1.296875h1.296875h0.8642578h9.0771484
		c9.2226563,0,16.2832031-2.449707,21.1816406-7.3486328c4.8994141-4.8989258,7.3496094-11.9594727,7.3496094-21.1816406
		c0-11.2392578-3.9628906-20.5332031-11.8886719-27.8818359c-7.9248047-7.3486328-17.7949219-11.0229492-29.6103516-11.0229492
		c-19.3085938,0-33.8613281,9.5097656-43.6601563,28.5302734l-42.7949219-15.9941406
		c7.4921875-18.4438477,18.8037109-32.925293,33.9335938-43.4438477C399.7890625,155.7592773,416.8632813,150.5,435.8837891,150.5
		c12.1035156,0,23.5595703,2.3056641,34.3662109,6.9165039s20.2441406,10.9511719,28.3134766,19.0200195
		c8.0693359,8.0693359,14.4091797,17.5073242,19.0205078,28.3144531C522.1953125,215.5576172,524.5,227.0126953,524.5,239.1166992
		c0,8.6455078-1.1523438,16.4267578-3.4580078,23.3432617c-2.3056641,6.9160156-6.6279297,14.9853516-12.9677734,24.2075195
		c5.4746094,4.8989258,9.9414063,9.5820313,13.4003906,14.0493164c3.4580078,4.4658203,6.2675781,9.1484375,8.4296875,14.0488281
		c2.1611328,4.8984375,3.6738281,10.1582031,4.5390625,15.7773438
		C535.3076172,336.1630859,535.7402344,342.5742188,535.7402344,349.7792969z"/>
</g>
</svg>
